<?xml version="1.0" encoding="utf-8"?>
<!-- Generator: Adobe Illustrator 27.0.0, SVG Export Plug-In . SVG Version: 6.00 Build 0)  -->
<svg version="1.1" id="图层_1" xmlns="http://www.w3.org/2000/svg" xmlns:xlink="http://www.w3.org/1999/xlink" x="0px" y="0px"
	 viewBox="0 0 256 256" style="enable-background:new 0 0 256 256;" xml:space="preserve">
<style type="text/css">
	.st0{fill-rule:evenodd;clip-rule:evenodd;fill:url(#SVGID_1_);}
	
		.st1{opacity:0.9;fill-rule:evenodd;clip-rule:evenodd;fill:url(#SVGID_00000090269899596122011070000007629455530797336249_);enable-background:new    ;}
	.st2{fill-rule:evenodd;clip-rule:evenodd;fill:url(#SVGID_00000076561534747441356210000007263419572172487045_);}
	.st3{fill:none;stroke:#0D1B2A;stroke-width:8;stroke-linecap:round;stroke-linejoin:round;}
</style>
<g>
	
		<linearGradient id="SVGID_1_" gradientUnits="userSpaceOnUse" x1="-167.8398" y1="547.7455" x2="-167.8398" y2="546.7455" gradientTransform="matrix(256 0 0 -256 43095 140222.8438)">
		<stop  offset="0" style="stop-color:#0D1B2A"/>
		<stop  offset="1" style="stop-color:#1B263B"/>
	</linearGradient>
	<path class="st0" d="M60,0h136c33.1,0,60,26.9,60,60v136c0,33.1-26.9,60-60,60H60c-33.1,0-60-26.9-60-60V60C0,26.9,26.9,0,60,0z"/>
	<g transform="translate(38, 58)">
		
			<linearGradient id="SVGID_00000035517242528505722580000013840008135079749296_" gradientUnits="userSpaceOnUse" x1="-206.0398" y1="489.3898" x2="-205.0398" y2="488.3898" gradientTransform="matrix(180 0 0 -180 37091 88067.2031)">
			<stop  offset="0" style="stop-color:#F4D03F"/>
			<stop  offset="1" style="stop-color:#E67E22"/>
		</linearGradient>
		
			<path style="opacity:0.9;fill-rule:evenodd;clip-rule:evenodd;fill:url(#SVGID_00000035517242528505722580000013840008135079749296_);enable-background:new    ;" d="
			M93.8-23c49.7,0,90,40.3,90,90s-40.3,90-90,90C69,157,46.5,147,30.2,130.7C13.9,114.4,3.8,91.9,3.8,67C3.8,17.3,44.1-23,93.8-23z"
			/>
		
			<linearGradient id="SVGID_00000148619219817589003790000015249362718035951749_" gradientUnits="userSpaceOnUse" x1="-207.1672" y1="489.4321" x2="-208.1672" y2="488.4321" gradientTransform="matrix(-153.6396 0 0 -180 -31818.7617 88067.2031)">
			<stop  offset="0" style="stop-color:#E0E0E0"/>
			<stop  offset="1" style="stop-color:#90A4AE"/>
		</linearGradient>
		<path style="fill-rule:evenodd;clip-rule:evenodd;fill:url(#SVGID_00000148619219817589003790000015249362718035951749_);" d="
			M3.8,67c0,24.9,10.1,47.4,26.4,63.6C46.5,147,69,157,93.8,157s47.4-10.1,63.6-26.4c-16.3-16.3-26.4-38.8-26.4-63.6
			s10.1-47.4,26.4-63.6C141.2-12.9,118.7-23,93.8-23C44.1-23,3.8,17.3,3.8,67z"/>
		<path class="st3" d="M73.8,67h40 M105.8,59l8,8l-8,8 M81.8,75l-8-8l8-8"/>
	</g>
</g>
</svg>
